<svg display="none" xmlns="http://www.w3.org/2000/svg">

	<!-- arrow -->
	<symbol id="arrow" viewBox="0 0 12 7">
		<g>
			<path d="M1 1L6 6L11 1" stroke="var(--arrow-color)" stroke-width="1.5" stroke-linecap="round" stroke-linejoin="round"/>
		</g>
	</symbol>

	<!--  -->
	<symbol id="lecture" viewBox="0 0 72 72">
		<g>
			<path fill="var(--icon-color)" d="M66.2344 36.9581C69.461 36.6723 72 33.956 72 30.6562V10.9688C72 7.47942 69.1612 4.64062 65.6719 4.64062H44.7188C41.2294 4.64062 38.3906 7.47942 38.3906 10.9688V19.2656H12.0938C8.60442 19.2656 5.76562 22.1044 5.76562 25.5938V50.9062C5.76562 51.6457 5.8943 52.3554 6.12844 53.0156H3.79688C1.70325 53.0156 0 54.7189 0 56.8125C0 62.628 4.73133 67.3594 10.5469 67.3594H61.4531C67.2687 67.3594 72 62.628 72 56.8125C72 54.7189 70.2968 53.0156 68.2031 53.0156H65.8716C66.1057 52.3554 66.2344 51.6457 66.2344 50.9062V36.9581ZM42.6094 10.9688C42.6094 9.80564 43.5556 8.85938 44.7188 8.85938H65.6719C66.835 8.85938 67.7812 9.80564 67.7812 10.9688V30.6562C67.7812 31.8194 66.835 32.7656 65.6719 32.7656H46.125C45.7296 32.7656 45.3423 32.8767 45.007 33.0863L40.754 35.7445L42.5205 29.8561C42.5794 29.6595 42.6094 29.4553 42.6094 29.25V10.9688ZM61.4531 63.1406H10.5469C7.1993 63.1406 4.45064 60.5277 4.23267 57.2344H67.7673C67.5494 60.5277 64.8007 63.1406 61.4531 63.1406ZM20.1094 37.125C20.1094 35.8068 21.1818 34.7344 22.5 34.7344C23.8182 34.7344 24.8906 35.8068 24.8906 37.125C24.8906 38.4432 23.8182 39.5156 22.5 39.5156C21.1818 39.5156 20.1094 38.4432 20.1094 37.125ZM18.9844 46.125C18.9844 44.8515 20.6272 43.7344 22.5 43.7344C23.5043 43.7344 24.472 44.0477 25.1549 44.594C25.4765 44.8512 26.0156 45.3921 26.0156 46.125V53.0156H18.9844V46.125ZM30.2344 53.0156V46.125C30.2344 44.3011 29.3437 42.5423 27.7903 41.2997C27.7554 41.2718 27.719 41.2456 27.6836 41.2183C28.5751 40.0916 29.1094 38.6699 29.1094 37.125C29.1094 33.4806 26.1444 30.5156 22.5 30.5156C18.8556 30.5156 15.8906 33.4806 15.8906 37.125C15.8906 38.6717 16.4261 40.0947 17.3194 41.222C15.7523 42.4323 14.7656 44.182 14.7656 46.125V53.0156H12.0938C10.9306 53.0156 9.98438 52.0694 9.98438 50.9062V25.5938C9.98438 24.4306 10.9306 23.4844 12.0938 23.4844H38.3906V28.9405L36.7131 34.5322C36.2036 36.2303 36.7851 38.0228 38.1946 39.0983C38.9538 39.6776 39.85 39.9704 40.7505 39.9704C41.5216 39.9704 42.2961 39.7555 42.9896 39.322L46.73 36.9844H62.0156V50.9062C62.0156 52.0694 61.0694 53.0156 59.9062 53.0156H30.2344Z" />
			<path fill="var(--icon-color)" d="M57.375 23.7656H52.875C51.7101 23.7656 50.7656 24.7101 50.7656 25.875C50.7656 27.0399 51.7101 27.9844 52.875 27.9844H57.375C58.5399 27.9844 59.4844 27.0399 59.4844 25.875C59.4844 24.7101 58.5399 23.7656 57.375 23.7656Z" />
			<path fill="var(--icon-color)" d="M49.5 17.8594H60.75C61.9149 17.8594 62.8594 16.9149 62.8594 15.75C62.8594 14.5851 61.9149 13.6406 60.75 13.6406H49.5C48.3351 13.6406 47.3906 14.5851 47.3906 15.75C47.3906 16.9149 48.3351 17.8594 49.5 17.8594Z" />
		</g>
	</symbol>

	<!-- instructor -->
	<symbol id="instructor" viewBox="0 0 72 72">
		<g>
			<path fill="var(--icon-color)" d="M70.5938 2.81641H1.40625C0.629578 2.81641 0 3.44613 0 4.22266V67.7764C0 68.553 0.629578 69.1827 1.40625 69.1827H15.0469C15.8235 69.1827 16.4531 68.553 16.4531 67.7764C16.4531 66.9999 15.8235 66.3702 15.0469 66.3702H2.8125V15.7467C2.85891 15.7514 2.90602 15.7539 2.95369 15.7539H69.1875V66.3702H66.6861V60.2945C66.6861 57.5491 64.9351 55.1241 62.3291 54.2608L57.3667 52.6164C57.9724 51.9037 58.4667 51.0942 58.8233 50.2142H63.002C63.7786 50.2142 64.4082 49.5845 64.4082 48.808V44.8416C64.4082 37.2498 58.2318 31.0733 50.6399 31.0733C43.048 31.0733 36.8716 37.2498 36.8716 44.8416V48.808C36.8716 49.5845 37.5012 50.2142 38.2778 50.2142H42.4565C42.8133 51.0942 43.3074 51.9037 43.9131 52.6164L38.9507 54.2608C36.3447 55.1241 34.5938 57.5489 34.5938 60.2943V66.37H28.0529C27.2762 66.37 26.6466 66.9998 26.6466 67.7763C26.6466 68.5528 27.2762 69.1825 28.0529 69.1825H36H65.2798H70.5938C71.3704 69.1825 72 68.5528 72 67.7763V4.22266C72 3.44598 71.3704 2.81641 70.5938 2.81641ZM61.5957 47.4016H59.4533C59.4623 47.2383 59.4678 47.074 59.4678 46.9085V44.9724C59.4678 44.9593 59.4668 44.9465 59.4668 44.9336H61.5957V47.4016ZM39.6841 47.4016V44.9336H41.813C41.813 44.9467 41.812 44.9595 41.812 44.9724V46.9085C41.812 47.074 41.8175 47.2383 41.8265 47.4016H39.6841ZM42.2872 42.121H40.0262C41.2391 37.3916 45.5376 33.8855 50.6399 33.8855C55.7422 33.8855 60.0407 37.3916 61.2536 42.121H58.9926C57.8039 38.6486 54.5099 36.1444 50.6399 36.1444C46.7699 36.1444 43.4759 38.6486 42.2872 42.121ZM50.6399 46.7382C49.8632 46.7382 49.2337 47.368 49.2337 48.1445V49.5977C49.2337 50.3742 49.8632 51.004 50.6399 51.004H55.0403C54.7213 51.3465 54.3634 51.6522 53.9729 51.9131C53.8805 51.9581 53.7931 52.0131 53.7124 52.0773C52.8124 52.6143 51.7618 52.9239 50.6399 52.9239C49.518 52.9239 48.4675 52.6144 47.5677 52.0775C47.4868 52.0132 47.3993 51.9581 47.3067 51.9129C45.691 50.8332 44.6245 48.9933 44.6245 46.9085V44.9724C44.6245 41.6555 47.323 38.957 50.6399 38.957C53.9568 38.957 56.6553 41.6555 56.6553 44.9724V46.9085C56.6553 47.3488 56.6063 47.7777 56.5162 48.1915H52.0462V48.1445C52.0462 47.368 51.4166 46.7382 50.6399 46.7382ZM63.8734 66.37H37.4062V60.2943C37.4062 58.7636 38.3825 57.4118 39.8354 56.9303L46.5228 54.7141C47.753 55.3656 49.1536 55.7363 50.6399 55.7363C52.1262 55.7363 53.5268 55.3656 54.757 54.7141L61.4444 56.9303C62.8973 57.4118 63.8734 58.7636 63.8734 60.2943V66.37ZM69.1875 12.9414H2.95369C2.90602 12.9414 2.85891 12.9439 2.8125 12.9486V5.62891H69.1875V12.9414Z" />
			<path fill="var(--icon-color)" d="M22.7181 66.7831C22.4565 66.5203 22.0937 66.3711 21.7239 66.3711C21.3526 66.3711 20.9912 66.5203 20.7297 66.7831C20.4667 67.0447 20.3176 67.4075 20.3176 67.7773C20.3176 68.1472 20.4667 68.51 20.7297 68.7716C20.9912 69.033 21.3526 69.1836 21.7239 69.1836C22.0937 69.1836 22.4565 69.0331 22.7181 68.7716C22.9797 68.51 23.1301 68.1472 23.1301 67.7773C23.1301 67.4075 22.9797 67.0447 22.7181 66.7831Z" />
			<path fill="var(--icon-color)" d="M63.0001 7.87891H31.228C30.4514 7.87891 29.8218 8.50863 29.8218 9.28516C29.8218 10.0617 30.4514 10.6914 31.228 10.6914H63.0001C63.7768 10.6914 64.4064 10.0617 64.4064 9.28516C64.4064 8.50863 63.7768 7.87891 63.0001 7.87891Z" />
			<path fill="var(--icon-color)" d="M15.6192 8.29191C15.3577 8.03021 14.9948 7.87988 14.625 7.87988C14.2552 7.87988 13.8923 8.03021 13.6308 8.29191C13.3692 8.55334 13.2188 8.91615 13.2188 9.28613C13.2188 9.65598 13.3692 10.0188 13.6308 10.2802C13.8923 10.5418 14.2552 10.6924 14.625 10.6924C14.9948 10.6924 15.3577 10.5419 15.6192 10.2802C15.8808 10.0188 16.0312 9.65598 16.0312 9.28613C16.0312 8.91615 15.8808 8.55334 15.6192 8.29191Z" />
			<path fill="var(--icon-color)" d="M9.99422 8.29191C9.73266 8.03021 9.36984 7.87988 9 7.87988C8.63016 7.87988 8.26734 8.03021 8.00578 8.29191C7.74422 8.55334 7.59375 8.91615 7.59375 9.28613C7.59375 9.65598 7.74422 10.0188 8.00578 10.2802C8.26734 10.5418 8.63016 10.6924 9 10.6924C9.36984 10.6924 9.73266 10.5419 9.99422 10.2802C10.2558 10.0188 10.4062 9.65598 10.4062 9.28613C10.4062 8.91615 10.2558 8.55334 9.99422 8.29191Z" />
			<path fill="var(--icon-color)" d="M21.2442 8.29191C20.9827 8.03021 20.6198 7.87988 20.25 7.87988C19.8802 7.87988 19.5173 8.03021 19.2558 8.29191C18.9942 8.55334 18.8438 8.91615 18.8438 9.28613C18.8438 9.65598 18.9942 10.0188 19.2558 10.2802C19.5173 10.5418 19.8802 10.6924 20.25 10.6924C20.6198 10.6924 20.9827 10.5419 21.2442 10.2802C21.5058 10.0188 21.6562 9.65598 21.6562 9.28613C21.6562 8.91615 21.5058 8.55334 21.2442 8.29191Z" />
			<path fill="var(--icon-color)" d="M30.1428 19.4102H13.3073C10.1568 19.4102 7.59375 21.9733 7.59375 25.1239V36.7589C7.59375 39.9095 10.1569 42.4727 13.3073 42.4727H30.1427C33.2933 42.4727 35.8564 39.9095 35.8564 36.7589V25.1239C35.8564 21.9733 33.2932 19.4102 30.1428 19.4102ZM30.1428 39.6602H13.3073C11.7077 39.6602 10.4062 38.3587 10.4062 36.7589V25.1239C10.4062 23.5241 11.7077 22.2227 13.3073 22.2227H30.1427C31.7423 22.2227 33.0438 23.5241 33.0438 25.1239V36.7589H33.0439C33.0439 38.3587 31.7424 39.6602 30.1428 39.6602Z"/>
			<path fill="var(--icon-color)" d="M25.9277 28.5789L20.5523 25.1334C19.6881 24.5795 18.5915 24.5412 17.6906 25.0337C16.7898 25.5263 16.2302 26.47 16.2302 27.4968V34.3877C16.2302 35.4144 16.7898 36.3581 17.6906 36.8507C18.1114 37.0808 18.5749 37.195 19.0374 37.195C19.5651 37.195 20.0918 37.0462 20.5523 36.751L25.9277 33.3056C26.7369 32.7869 27.2201 31.9034 27.2201 30.9422C27.2201 29.981 26.7367 29.0975 25.9277 28.5789ZM19.0427 34.3773L19.0431 27.5067L24.4027 30.9423L19.0427 34.3773Z"/>
			<path fill="var(--icon-color)" d="M19.3351 53.1602H9C8.22333 53.1602 7.59375 53.7899 7.59375 54.5664C7.59375 55.3429 8.22333 55.9727 9 55.9727H19.3351C20.1118 55.9727 20.7413 55.3429 20.7413 54.5664C20.7413 53.7899 20.1118 53.1602 19.3351 53.1602Z" />
			<path fill="var(--icon-color)" d="M29.6459 53.1602H25.75C24.9733 53.1602 24.3438 53.7899 24.3438 54.5664C24.3438 55.3429 24.9733 55.9727 25.75 55.9727H29.6459C30.4225 55.9727 31.0521 55.3429 31.0521 54.5664C31.0521 53.7899 30.4225 53.1602 29.6459 53.1602Z" />
			<path fill="var(--icon-color)" d="M23.82 46.4102H9C8.22333 46.4102 7.59375 47.0399 7.59375 47.8164C7.59375 48.5929 8.22333 49.2227 9 49.2227H23.82C24.5967 49.2227 25.2263 48.5929 25.2263 47.8164C25.2263 47.0399 24.5967 46.4102 23.82 46.4102Z" />
			<path fill="var(--icon-color)" d="M30.6912 46.8222C30.4297 46.5606 30.0669 46.4102 29.697 46.4102C29.3258 46.4102 28.9644 46.5605 28.7028 46.8222C28.4412 47.0836 28.2908 47.4464 28.2908 47.8164C28.2908 48.1862 28.4412 48.5491 28.7028 48.8105C28.9644 49.072 29.3258 49.2227 29.697 49.2227C30.0669 49.2227 30.4297 49.0722 30.6912 48.8105C30.9528 48.5491 31.1033 48.1862 31.1033 47.8164C31.1033 47.4466 30.9528 47.0838 30.6912 46.8222Z" />
			<path fill="var(--icon-color)" d="M29.6438 59.9102H9C8.22333 59.9102 7.59375 60.5399 7.59375 61.3164C7.59375 62.0929 8.22333 62.7227 9 62.7227H29.6438C30.4204 62.7227 31.05 62.0929 31.05 61.3164C31.05 60.5399 30.4204 59.9102 29.6438 59.9102Z" />
		</g>
	</symbol>

	<!--  -->
	<symbol id="success" viewBox="0 0 72 72">
		<g>
			<path fill="var(--icon-color)" d="M21.4645 25.3047L25.9456 29.7856L36 19.8812V23.9887H40.2353V12.7051H28.9517V16.9404H32.9503L25.968 23.8183L21.4645 19.315L3.44897 37.3306L6.44375 40.3254L21.4645 25.3047Z" />
			<path fill="var(--icon-color)" d="M12.7058 71.9997H21.1764C21.1764 70.603 21.1764 48.0882 21.1764 46.5879H12.7058V71.9997Z" />
			<path fill="var(--icon-color)" d="M25.4116 72.0006H33.8822C33.8822 70.6769 33.8822 44.3311 33.8822 42.3535H25.4116V72.0006Z" />
			<path fill="var(--icon-color)" d="M72.0003 21.1765L64.0591 10.5882L72.0003 0C70.5744 0 45.777 0 44.4709 0V38.1176H38.1179V72H55.0591V38.1176H48.7062V21.1765H72.0003Z" />
			<path fill="var(--icon-color)" d="M8.47059 50.8232H0V71.9997H8.47059C8.47059 71.0221 8.47059 51.7974 8.47059 50.8232Z" />
		</g>
	</symbol>
</svg>